<svg xmlns="http://www.w3.org/2000/svg" viewBox="0 0 174.5 275.92"><defs><style>.cls-1{fill:none;stroke:#29abe2;stroke-miterlimit:10;stroke-width:3px;}</style></defs><title>Fichier 2</title><g id="Calque_2" data-name="Calque 2"><g id="Calque_1-2" data-name="Calque 1"><path class="cls-1" d="M16.59,152.14c-5-13.57-5.52-30.7-2.48-44.64,1.2-5.48,3.23-11.8,0-17.67-2.84-5.16-7.25-5.42-10.33-10.67C0,72.7,1.9,65.12,2.77,61.5,3.83,57.11,6.25,50.9,17.1,39.83A116.7,116.7,0,0,1,42.77,19.17C59,9.49,72.2,1.56,89.44,1.5c19-.07,32.32,10.29,59,31,4.58,3.56,21.39,16.9,24,32,.49,2.85,1.34,7.77-1,12.67-2.54,5.3-6.56,5.88-9,10.33-3.19,5.82-.51,12.46,1,17.67,6,20.72,1.84,47.52-11.05,61.72a42.29,42.29,0,0,1-7.95,6.62c-33.4,23.44-83.83,16.37-112.1-1.24a34.3,34.3,0,0,1-4.9-3.43c-4.79-4.15-8.37-10-10.85-16.69"/><path class="cls-1" d="M27.1,77.17A53.9,53.9,0,0,0,15.8,95.75"/><path class="cls-1" d="M147.77,75.83A50.82,50.82,0,0,1,161,93.63"/><path class="cls-1" d="M40,176.49c-13.09,1.81-22.1,5.94-22.45,10.78-.23,3.26,3.43,7.45,7,7.67,4.64.28,5.92-5.86,10.67-6,5.2-.15,5.93,7.15,12.33,8.67,5.56,1.32,7-3.71,18.5-5.33,4.34-.61,8.76-1.17,12.5,1.33,3,2,2.57,4,5.67,5.67,5.13,2.8,11.33.13,12-.17,4.44-2,4-4.39,7.33-6,6.31-3,10.43,4.26,19.83,3.83,9.9-.45,11.76-8.79,20.67-7.5,4.68.68,6.72,3.36,11.83,2.5,3-.51,7-2.4,7.17-4.5s-3.92-5.56-23.87-10.56"/><path class="cls-1" d="M42.2,194.18c.91,12.59-2.32,19.86-5.61,24.23-3.51,4.67-8.17,7.46-11.25,15.25-1.36,3.45-2.87,7.26-1.25,10.5,2.77,5.54,13.44,6.92,20.75,3.5,5.56-2.6,8-7.41,11.5-14.5a66.23,66.23,0,0,0,6.38-24.47c.61-6.79.13-11.27.37-11.28s3.46,11.58,1.25,24.75c-2.52,15-9.54,17.92-10.5,33-.35,5.46-.85,13.3,3.75,16.5,5.22,3.63,15.3.09,20.75-6,4.61-5.15,4.57-10.64,5.5-31.5.5-11.25,1.39-31.25,2-31.25s2.21,14.46,2,32.75c-.16,14.35-1.36,19.2,2.25,26,.8,1.51,7,13.18,17.25,12.75a15.61,15.61,0,0,0,12.75-7.5c.92-1.66,2.42-5.22,0-15.5-2.14-9.11-5.25-14.55-7.25-19-8-17.76-5.18-35.21-4.75-35.25s.57,12.93,6.5,29.75c4,11.33,7.17,20,15,22.75,6.24,2.23,15,.59,17.75-4.5,3.28-6-2.78-14.79-5-18-4.71-6.83-8.11-7.26-11.5-13s-3.9-12.29-3.34-18"/><path class="cls-1" d="M54.62,117.68a11.59,11.59,0,0,1,15,.67c4.92,4.64,4.86,13.51-.67,17.67s-13.81,1.81-17-4A11.57,11.57,0,0,1,54.62,117.68Z"/><path class="cls-1" d="M115.54,116.24a11.59,11.59,0,0,1,15,.67c4.92,4.64,4.86,13.51-.67,17.67s-13.81,1.81-17-4A11.57,11.57,0,0,1,115.54,116.24Z"/><path class="cls-1" d="M55.07,121.68c1.65-2.35,5.29-2.82,7-1.33,2.17,1.89,1.35,7-1.67,8.33a4.66,4.66,0,0,1-5.33-1.33A4.82,4.82,0,0,1,55.07,121.68Z"/><path class="cls-1" d="M115.88,124.45a4.1,4.1,0,0,0,2.17,2,4.38,4.38,0,0,0,4.33-1.33c1.88-2,2.11-6.13-.33-7.67a4.86,4.86,0,0,0-6.33,1.67C114.25,121.48,115.71,124.15,115.88,124.45Z"/><path class="cls-1" d="M77.8,149.34a10.3,10.3,0,0,0,.33,6.67c2,5,7.4,7.27,11.67,7.5,4.06.22,10.2-1.27,12.5-6.33a10.87,10.87,0,0,0,0-8.33c-2.08-5.07-7.73-7.68-12.67-7.5C84.93,141.51,79.35,144.28,77.8,149.34Z"/><path class="cls-1" d="M85.89,162.75a9.63,9.63,0,0,1,16.42-5.58"/><path class="cls-1" d="M69,271.9a14.11,14.11,0,0,1,.29-9.56c2.1-5,7.34-8.39,13.4-8.68"/><path class="cls-1" d="M41.24,248.91c.25-1,1.7-6.41,6.85-9.07a12.73,12.73,0,0,1,5.51-1.38"/><path class="cls-1" d="M99.79,272.46A17.24,17.24,0,0,0,98.9,264c-2.8-7.47-10-10.18-11.24-10.6"/><path class="cls-1" d="M118.73,237.71a10,10,0,0,1,7.11,4,9.86,9.86,0,0,1,1.69,7.07"/></g></g></svg>